<mxfile host="app.diagrams.net" modified="2023-07-25T10:02:30.744Z" agent="Mozilla/5.0 (Windows NT 10.0; Win64; x64) AppleWebKit/537.36 (KHTML, like Gecko) Chrome/115.0.0.0 Safari/537.36" version="21.6.5" etag="9PMONnleDksNR_prJpQB" type="github">
  <diagram name="第 1 页" id="NbN-Ei5T76m0lEwrDt_K">
    <mxGraphModel>
      <root>
        <mxCell id="0" />
        <mxCell id="1" parent="0" />
      </root>
    </mxGraphModel>
  </diagram>
</mxfile>
